<?xml version="1.0" standalone="no"?><!DOCTYPE svg PUBLIC "-//W3C//DTD SVG 1.1//EN" "http://www.w3.org/Graphics/SVG/1.1/DTD/svg11.dtd"><svg t="1683720321781" class="icon" viewBox="0 0 1024 1024" version="1.1" xmlns="http://www.w3.org/2000/svg" p-id="51479" xmlns:xlink="http://www.w3.org/1999/xlink" width="200" height="200"><path d="M872.296296 398.222222a37.925926 37.925926 0 0 1 37.925926 37.925926v474.074074a37.925926 37.925926 0 0 1-37.925926 37.925926H151.703704a37.925926 37.925926 0 0 1-37.925926-37.925926V436.148148a37.925926 37.925926 0 0 1 37.925926-37.925926h720.592592z m-303.407407 94.814815l-208.592593 170.666667h129.573926L455.111111 834.37037l208.592593-170.666666h-129.573926L568.888889 493.037037z" fill="#2c2c2c" p-id="51480"></path><path d="M170.666667 341.333333h682.666666a18.962963 18.962963 0 0 0 0-37.925926H170.666667a18.962963 18.962963 0 0 0 0 37.925926z" fill="#2c2c2c" opacity=".7" p-id="51481"></path><path d="M246.518519 246.518519h530.962962a18.962963 18.962963 0 0 0 0-37.925926H246.518519a18.962963 18.962963 0 0 0 0 37.925926z" fill="#2c2c2c" opacity=".6" p-id="51482"></path><path d="M322.37037 151.703704h379.25926a18.962963 18.962963 0 0 0 0-37.925926H322.37037a18.962963 18.962963 0 0 0 0 37.925926z" fill="#2c2c2c" opacity=".5" p-id="51483"></path></svg>