<?xml version="1.0" standalone="no"?><!DOCTYPE svg PUBLIC "-//W3C//DTD SVG 1.1//EN" "http://www.w3.org/Graphics/SVG/1.1/DTD/svg11.dtd"><svg t="1683767190809" class="icon" viewBox="0 0 1024 1024" version="1.1" xmlns="http://www.w3.org/2000/svg" p-id="4854" xmlns:xlink="http://www.w3.org/1999/xlink" width="200" height="200"><path d="M266.070206 680.077615c-18.424413 10.295996-39.5583 16.256835-61.775974 16.256836-73.336391 0-132.764156-62.859764-132.764156-140.531311 0-77.490916 59.427765-140.350679 132.764156-140.350679 2.528841 0 5.238314 0.180632 7.586523 0.180631 5.238314 0 7.044629-1.264421 7.044629-15.353678 0-10.295996 0.903158-25.469042-0.722526-34.681249-0.722526-4.515788-3.793262-6.141471-9.392839-6.141471s-3.070736-0.180632-4.515787-0.180631C96.457223 359.456694 9.031575 447.062974 9.031575 555.261245s87.425648 195.804551 195.262657 195.804551c37.751984 0 72.975128-10.83789 102.779326-29.442935 2.709473-1.986947 1.806315-3.431999-2.528841-7.405892-5.96084-5.418945-23.843359-26.010937-29.262304-31.971776-3.793262-4.154525-5.780208-3.61263-9.212207-2.167578" fill="#D71718" p-id="4855"></path><path d="M451.217499 379.506791c81.103546 0 146.853413 69.543129 146.853413 155.343094s-65.749868 155.343094-146.853413 155.343094-146.853413-69.543129-146.853414-155.343094c0 0 1.083789-5.96084-9.392838-5.960839h-50.576821c-10.295996 0-9.031575 6.683366-9.031575 6.683365 0 119.758688 96.637855 216.757806 216.035279 216.757806s216.03528-96.999118 216.03528-216.757806c0-119.578056-96.637855-216.757806-216.03528-216.757805 0 0-15.173046 1.264421-15.173046 13.727994v32.874934c-0.180632 11.741048 14.992415 14.089257 14.992415 14.089257" fill="#D71718" p-id="4856"></path><path d="M451.217499 498.001058c-81.103546 0-146.853413-69.543129-146.853414-155.343094s65.749868-155.343094 146.853414-155.343094 146.853413 69.543129 146.853413 155.343094c0 0-1.083789 5.96084 9.392838 5.96084h50.576822c10.295996 0 9.212207-6.683366 9.212206-6.683366 0-119.758688-96.637855-216.577174-216.035279-216.577174-119.216793 0-216.03528 96.999118-216.03528 216.577174s96.818487 216.577174 216.03528 216.577174c0 0 15.173046-1.264421 15.173046-13.727994v-32.874934c0-11.560416-15.173046-13.908626-15.173046-13.908626" fill="#D71718" p-id="4857"></path><path d="M651.8991 408.046569c5.418945 8.309049 8.489681 9.934733 13.005469 9.392838 6.863997-1.083789 13.908626-1.806315 21.133886-1.806315 73.336391 0 132.764156 62.859764 132.764156 140.350679 0 4.515788-0.903158 8.670312-1.264421 13.005469h62.317869c0.361263-4.515788 1.445052-8.850944 1.445052-13.547363 0-108.198271-87.425648-195.804551-195.262656-195.804551-19.508203 0-38.293879 2.890104-55.995767 8.128418-2.528841 0.722526-5.057682 4.877051 0.722526 11.379784 7.767155 8.850944 14.45052 18.785676 21.133886 28.901041z" fill="#D71718" p-id="4858"></path><path d="M959.333921 479.396013H622.817428c-27.997883 0-52.925031 26.914094-52.925031 61.23408v280.701359c0 34.139354 23.301464 61.23408 52.925031 61.23408h336.516493c27.997883 0 52.925031-26.914094 52.925031-61.23408V540.630093c1.625684-32.513671-23.301464-61.23408-52.925031-61.23408zM933.322985 818.260716H649.008996v-39.558299h120.119951v-55.273241h-89.412595v-38.293879h89.412595v-53.466925h-103.321221v-39.016405h112.352796c-6.502734-13.005468-13.727994-25.830305-21.856412-38.293879l39.738931-18.243782c8.670312 13.005468 17.340624 27.455989 26.191568 43.351561l-27.997883 13.1861H917.608044v39.016405h-104.766273v53.466925h91.399541v38.293879H812.841771v55.273241h120.300582V818.260716z" fill="#4383C5" p-id="4859"></path></svg>