<?xml version="1.0" standalone="no"?><!DOCTYPE svg PUBLIC "-//W3C//DTD SVG 1.1//EN" "http://www.w3.org/Graphics/SVG/1.1/DTD/svg11.dtd"><svg t="1684742303415" class="icon" viewBox="0 0 1024 1024" version="1.1" xmlns="http://www.w3.org/2000/svg" p-id="11097" xmlns:xlink="http://www.w3.org/1999/xlink" width="200" height="200"><path d="M928.814545 405.783273a28.858182 28.858182 0 0 0 0-40.773818l-309.992727-309.992728a28.858182 28.858182 0 0 0-40.820363 0l-451.118546 451.118546a115.246545 115.246545 0 0 0 0 163.048727l244.968727 243.432727a115.432727 115.432727 0 0 0 81.221819 33.512728h370.501818a28.811636 28.811636 0 1 0 0-57.669819h-238.266182c-51.339636 0-77.079273-62.045091-40.820364-98.443636l384.325818-384.232727zM436.968727 816.174545a57.623273 57.623273 0 0 1-81.501091 0l-187.810909-187.717818a57.623273 57.623273 0 0 1 0-81.501091l115.2-115.2 269.312 269.312-115.2 115.106909z" p-id="11098"></path></svg>