<?xml version="1.0" standalone="no"?><!DOCTYPE svg PUBLIC "-//W3C//DTD SVG 1.1//EN" "http://www.w3.org/Graphics/SVG/1.1/DTD/svg11.dtd"><svg class="icon" width="200px" height="192.66px" viewBox="0 0 1063 1024" version="1.1" xmlns="http://www.w3.org/2000/svg"><path fill="#2c2c2c" d="M547.2 433.6c16.8-16.8 16.8-46.4 0-63.2-16.8-16.8-46.4-16.8-63.2 0L430.4 424 384 377.6l-144 144c-67.2 67.2-76.8 170.4-30.4 247.2l-40 40c-16.8 16.8-16.8 46.4 0 63.2 16.8 16.8 46.4 16.8 63.2 0l40-40c76.8 46.4 180.8 40 247.2-30.4l144-144-46.4-46.4 53.6-53.6c16.8-16.8 16.8-46.4 0-63.2-16.8-16.8-46.4-16.8-63.2 0l-53.6 53.6-56.8-60c-0.8-0.8 49.6-54.4 49.6-54.4zM826.4 152l-40 40c-76.8-46.4-180.8-40-247.2 30.4l-144 144 284 284 144-144c67.2-67.2 76.8-170.4 30.4-247.2l40-40c16.8-16.8 16.8-46.4 0-63.2-20-20.8-47.2-20.8-67.2-4z" /></svg>