<?xml version="1.0" standalone="no"?><!DOCTYPE svg PUBLIC "-//W3C//DTD SVG 1.1//EN" "http://www.w3.org/Graphics/SVG/1.1/DTD/svg11.dtd"><svg t="1683719810460" class="icon" viewBox="0 0 1024 1024" version="1.1" xmlns="http://www.w3.org/2000/svg" p-id="23583" xmlns:xlink="http://www.w3.org/1999/xlink" width="200" height="200"><path d="M993.28 240.5376l-410.3168-204.8A161.1776 161.1776 0 0 0 512.7168 20.48a162.2016 162.2016 0 0 0-70.4512 14.4384l-410.3168 204.8c-38.7072 19.456-38.7072 51.2 0 70.4512l410.2144 204.8a162.2016 162.2016 0 0 0 70.4512 14.5408 161.8944 161.8944 0 0 0 70.4512-14.5408L993.28 310.8864c38.8096-19.2512 38.8096-51.2 0-70.3488zM552.96 464.1792a93.0816 93.0816 0 0 1-38.912 6.9632 93.0816 93.0816 0 0 1-38.912-6.9632L99.328 276.48 475.136 88.4736A95.232 95.232 0 0 1 514.048 81.92a95.6416 95.6416 0 0 1 38.912 6.8608L928.6656 276.48z m0 0" fill="#333333" p-id="23584"></path><path d="M512.7168 781.312a201.9328 201.9328 0 0 1-88.064-18.8416L22.6304 561.5616c-19.3536-10.24-28.3648-27.648-18.7392-47.104s34.6112-21.0944 54.0672-11.4688l401.92 201.0112a139.776 139.776 0 0 0 105.6768 0l401.92-200.9088c19.5584-9.6256 40.96-10.24 51.2 8.704a35.328 35.328 0 0 1-15.872 49.7664L600.7808 762.4704a200.2944 200.2944 0 0 1-88.064 18.8416z m0 0" fill="#333333" p-id="23585"></path><path d="M513.7408 1003.52a200.192 200.192 0 0 1-88.064-18.8416L23.6544 783.36C4.096 773.7344-4.9152 755.8144 4.9152 736.256s34.5088-21.0944 54.0672-11.3664L460.8 925.9008a139.776 139.776 0 0 0 105.6768 0l402.0224-201.0112c19.5584-10.24 40.96-10.752 51.2 8.704A35.1232 35.1232 0 0 1 1003.52 783.2576L601.8048 984.2688a198.8608 198.8608 0 0 1-88.064 19.2512z m0 0" fill="#333333" p-id="23586"></path></svg>