<?xml version="1.0" standalone="no"?><!DOCTYPE svg PUBLIC "-//W3C//DTD SVG 1.1//EN" "http://www.w3.org/Graphics/SVG/1.1/DTD/svg11.dtd"><svg t="1683719918938" class="icon" viewBox="0 0 1024 1024" version="1.1" xmlns="http://www.w3.org/2000/svg" p-id="27359" xmlns:xlink="http://www.w3.org/1999/xlink" width="200" height="200"><path d="M168 504.2c-0.1 4.3-3.6 7.8-8 7.8h-60c-4.5 0-8.1-3.7-8-8.2C96.3 275.6 282.7 92 511.8 92c134.4 0 254 63.1 330.9 161.5l56.4-44.1c5.2-4.2 12.9-0.4 12.9 6.3l-0.8 180.9c0 5.1-4.9 8.9-9.9 7.7l-175.7-43c-6.5-1.6-8.3-10-3-14.1l60.2-47c-8.6-11-17.9-21.5-27.8-31.4-31.6-31.7-68.4-56.5-109.3-73.8-42.3-17.9-87.3-27-133.8-27s-91.5 9.1-133.9 27c-41 17.3-77.8 42.1-109.4 73.8s-56.4 68.4-73.7 109.4c-16.9 39.9-25.9 82.3-26.9 126z m756 7.8c4.5 0 8.1 3.7 8 8.2C927.7 748.3 741.4 932 512.2 932c-134.4 0-254-63.1-330.9-161.4l-56.4 44.1c-5.2 4.2-12.9 0.4-12.9-6.3l0.7-181c0-5.1 4.9-8.9 9.9-7.7l175.7 43c6.5 1.6 8.3 10 3 14.1l-60.2 47c8.6 11 17.9 21.5 27.8 31.4 31.6 31.7 68.4 56.5 109.3 73.8 42.4 17.9 87.4 27 133.9 27s91.5-9.1 133.9-27c41-17.3 77.8-42.2 109.4-73.8 31.6-31.6 56.4-68.4 73.7-109.4 16.9-39.9 25.9-82.3 26.9-126 0.1-4.3 3.6-7.8 8-7.8h60zM686.7 638.6c3.6 2.5 4.4 7.5 1.8 11.2l-28.6 39c-2.6 3.5-7.6 4.3-11.2 1.7L483.3 569.9c-2.1-1.5-3.3-3.9-3.3-6.5V288c0-4.4 3.6-8 8-8h48.1c4.4 0 8 3.6 8 8v247.5l142.6 103.1z" fill="#2c2c2c" p-id="27360"></path></svg>