<?xml version="1.0" standalone="no"?><!DOCTYPE svg PUBLIC "-//W3C//DTD SVG 1.1//EN" "http://www.w3.org/Graphics/SVG/1.1/DTD/svg11.dtd"><svg t="1683720512941" class="icon" viewBox="0 0 1024 1024" version="1.1" xmlns="http://www.w3.org/2000/svg" p-id="55600" xmlns:xlink="http://www.w3.org/1999/xlink" width="200" height="200"><path d="M763.946667 772.053333c-143.402667 0-260.053333-116.650667-260.053334-260.053333s116.650667-260.053333 260.053334-260.053333S1024 368.597333 1024 512s-116.650667 260.053333-260.053333 260.053333z m0-455.082666c-107.562667 0-195.029333 87.509333-195.029334 195.029333s87.509333 195.029333 195.029334 195.029333S958.976 619.52 958.976 512s-87.466667-195.029333-195.029333-195.029333z" fill="#2c2c2c" p-id="55601"></path><path d="M390.101333 910.208a16.298667 16.298667 0 0 1-16.256-16.256v-162.56a16.298667 16.298667 0 0 1 32.512 0v162.56c0 8.96-7.338667 16.256-16.256 16.256z" fill="#2c2c2c" opacity=".7" p-id="55602"></path><path d="M698.922667 926.464H81.28a16.298667 16.298667 0 0 1 0-32.512h617.642667a16.213333 16.213333 0 1 1 0 32.512zM602.026667 715.178667H65.024A32.554667 32.554667 0 0 1 32.512 682.666667V162.56c0-17.92 14.592-32.512 32.512-32.512h650.154667c17.92 0 32.512 14.592 32.512 32.512v90.24c5.418667-0.341333 10.752-0.810667 16.256-0.810667s10.837333 0.469333 16.256 0.810667V162.56c0-35.754667-29.269333-65.024-65.024-65.024H65.024C29.269333 97.536 0 126.762667 0 162.56V682.666667c0 35.754667 29.269333 65.024 65.024 65.024h589.696a261.418667 261.418667 0 0 1-52.693333-32.512z" fill="#2c2c2c" opacity=".7" p-id="55603"></path><path d="M731.434667 396.885333h65.024v257.322667h-65.024z" fill="#2c2c2c" p-id="55604"></path><path d="M630.997333 504.618667l23.808 22.186666 109.098667-117.418666 109.141333 117.418666 23.808-22.186666-132.949333-142.976z" fill="#2c2c2c" p-id="55605"></path></svg>